<svg width="62" height="64" viewBox="0 0 62 64" fill="none" xmlns="http://www.w3.org/2000/svg">
<g clip-path="url(#clip0_1971_91233)">
<rect width="4.99509" height="2.85434" transform="matrix(-1.31134e-07 -1 -1 1.31134e-07 5.61453 26.7678)" fill="black"/>
<rect width="2.85434" height="2.85434" transform="matrix(-1.31134e-07 -1 -1 1.31134e-07 8.46884 21.7727)" fill="black"/>
<rect width="2.85434" height="2.85434" transform="matrix(-1.31134e-07 -1 -1 1.31134e-07 8.46884 24.627)" fill="#9D9AFF"/>
<rect width="2.85434" height="2.85434" transform="matrix(-1.31134e-07 -1 -1 1.31134e-07 11.3232 18.9185)" fill="black"/>
<rect width="2.85434" height="2.85434" transform="matrix(-1.31134e-07 -1 -1 1.31134e-07 11.3232 21.7727)" fill="#9D9AFF"/>
<rect width="2.85434" height="4.28151" transform="matrix(-1.31134e-07 -1 -1 1.31134e-07 15.6047 16.064)" fill="black"/>
<rect width="2.85434" height="11.4174" transform="matrix(-1.31134e-07 -1 -1 1.31134e-07 27.022 16.064)" fill="#9D9AFF"/>
<rect width="2.85434" height="11.4174" transform="matrix(-1.31134e-07 -1 -1 1.31134e-07 27.022 13.2097)" fill="black"/>
<rect x="-0.0941772" y="31.7629" width="4.99509" height="2.85434" transform="rotate(-90 -0.0941772 31.7629)" fill="black"/>
<path d="M27.021 31.7622H2.75929V26.7671H5.61378V24.6265H8.46828V21.772H11.3228V16.064H27.021V31.7622Z" fill="#5448C8"/>
<rect width="18.5532" height="7.20721" transform="matrix(-1.52236e-08 -1 -1 1.12957e-06 34.2307 31.7634)" fill="#5448C8"/>
<rect x="34.2307" y="13.2104" width="7.20721" height="2.85434" transform="rotate(180 34.2307 13.2104)" fill="black"/>
<rect x="55.6383" y="31.7622" width="4.99509" height="2.85434" transform="rotate(-90 55.6383 31.7622)" fill="#9D9AFF"/>
<rect x="58.4927" y="31.7622" width="4.99509" height="2.85434" transform="rotate(-90 58.4927 31.7622)" fill="black"/>
<rect x="55.6383" y="26.7671" width="4.99509" height="2.85434" transform="rotate(-90 55.6383 26.7671)" fill="black"/>
<rect x="52.784" y="21.772" width="2.85434" height="2.85434" transform="rotate(-90 52.784 21.772)" fill="black"/>
<rect x="49.9296" y="21.772" width="2.85434" height="2.85434" transform="rotate(-90 49.9296 21.772)" fill="#9D9AFF"/>
<rect x="52.784" y="24.6265" width="2.85434" height="2.85434" transform="rotate(-90 52.784 24.6265)" fill="#9D9AFF"/>
<rect x="49.9296" y="18.9177" width="2.85434" height="2.85434" transform="rotate(-90 49.9296 18.9177)" fill="black"/>
<rect x="47.0753" y="18.9177" width="2.85434" height="2.85434" transform="rotate(-90 47.0753 18.9177)" fill="#9D9AFF"/>
<rect x="45.6481" y="16.0632" width="2.85434" height="4.28151" transform="rotate(-90 45.6481 16.0632)" fill="black"/>
<path d="M45.6487 13.209V16.0635H47.0754V18.918H49.9299V21.7725H52.7844V24.627H55.6389V31.7627H34.2307V13.209H45.6487Z" fill="#5448C8"/>
<rect width="2.85434" height="11.4174" transform="matrix(-1.31134e-07 -1 -1 1.31134e-07 45.6481 13.209)" fill="black"/>
<rect x="2.76254" y="31.7646" width="10.8108" height="2.85434" transform="rotate(90 2.76254 31.7646)" fill="black"/>
<rect x="27.0235" y="31.7646" width="10.8108" height="24.2619" transform="rotate(90 27.0235 31.7646)" fill="#5448C8"/>
<rect x="27.0235" y="31.7646" width="7.20721" height="10.8108" fill="#5448C8"/>
<rect x="61.347" y="31.7646" width="10.8108" height="2.85434" transform="rotate(90 61.347 31.7646)" fill="black"/>
<rect x="58.4929" y="31.7646" width="10.8108" height="24.2619" transform="rotate(90 58.4929 31.7646)" fill="#5448C8"/>
<rect x="2.7628" y="42.5771" width="2.86232" height="2.85434" transform="rotate(90 2.7628 42.5771)" fill="black"/>
<rect x="5.62415" y="45.4397" width="4.99509" height="2.85434" transform="rotate(90 5.62415 45.4397)" fill="black"/>
<rect x="5.62364" y="42.5771" width="4.99509" height="2.85434" transform="rotate(90 5.62364 42.5771)" fill="#9D9AFF"/>
<rect x="8.47855" y="50.4348" width="2.85434" height="2.85434" transform="rotate(90 8.47855 50.4348)" fill="black"/>
<rect x="8.47768" y="47.5725" width="2.85434" height="2.85434" transform="rotate(90 8.47768 47.5725)" fill="#9D9AFF"/>
<rect x="11.3329" y="53.2893" width="2.85434" height="2.85434" transform="rotate(90 11.3329 53.2893)" fill="black"/>
<rect x="11.3352" y="50.4268" width="2.85434" height="2.85434" transform="rotate(90 11.3352 50.4268)" fill="#9D9AFF"/>
<rect x="15.6143" y="56.1436" width="2.85434" height="4.28151" transform="rotate(90 15.6143 56.1436)" fill="black"/>
<rect x="15.6145" y="53.2808" width="2.85434" height="4.28151" transform="rotate(90 15.6145 53.2808)" fill="#9D9AFF"/>
<path d="M27.0309 42.5771V56.1348H15.6139V53.2803H11.3316V50.4258H8.47813V47.5723H5.62364V42.5771H27.0309Z" fill="#5448C8"/>
<rect x="15.6143" y="58.9978" width="11.4174" height="2.85434" fill="black"/>
<rect x="15.6145" y="56.1355" width="11.4174" height="2.85434" fill="#9D9AFF"/>
<rect width="13.5581" height="7.2072" transform="matrix(-1.11299e-08 -1 -1 1.54505e-06 34.2378 56.1338)" fill="#5448C8"/>
<rect x="27.0306" y="58.9807" width="7.2072" height="2.85434" fill="black"/>
<rect x="27.0306" y="56.1348" width="7.2072" height="2.85434" fill="#9D9AFF"/>
<rect width="2.85528" height="2.85434" transform="matrix(4.37114e-08 1 1 -4.37114e-08 58.5025 42.5842)" fill="black"/>
<rect width="4.99509" height="2.85434" transform="matrix(4.37114e-08 1 1 -4.37114e-08 55.6445 45.4395)" fill="black"/>
<rect width="4.99509" height="2.85434" transform="matrix(4.37114e-08 1 1 -4.37114e-08 55.6464 42.5852)" fill="#9D9AFF"/>
<rect width="2.85434" height="2.85434" transform="matrix(4.37114e-08 1 1 -4.37114e-08 52.7902 50.4346)" fill="black"/>
<rect width="2.85434" height="2.85434" transform="matrix(4.37114e-08 1 1 -4.37114e-08 52.7924 47.5806)" fill="#9D9AFF"/>
<rect width="2.85434" height="2.85434" transform="matrix(4.37114e-08 1 1 -4.37114e-08 49.9358 53.2888)" fill="black"/>
<rect width="2.85434" height="2.85434" transform="matrix(4.37114e-08 1 1 -4.37114e-08 49.9384 50.4346)" fill="#9D9AFF"/>
<rect width="2.85434" height="4.28151" transform="matrix(4.37114e-08 1 1 -4.37114e-08 45.6544 56.1433)" fill="black"/>
<rect width="2.85434" height="4.28151" transform="matrix(4.37114e-08 1 1 -4.37114e-08 45.6556 53.2886)" fill="#9D9AFF"/>
<path d="M34.2392 42.5852V56.1428H45.6562V53.2883H49.9374V50.4338H52.7919V47.5803H55.6464V42.5852H34.2392Z" fill="#5448C8"/>
<rect width="11.4174" height="2.85434" transform="matrix(-1 0 0 1 45.6544 58.9976)" fill="black"/>
<rect width="11.4174" height="2.85434" transform="matrix(-1 0 0 1 45.6556 56.1436)" fill="#9D9AFF"/>
<path d="M55.6466 26.7678H58.4923V42.5754H55.6466V47.5735H5.6163V42.5754H2.76962V26.7678H5.6163V24.6272H55.6466V26.7678Z" fill="#5448C8"/>
<rect x="23.4702" y="13.2102" width="12.394" height="42.9236" fill="#5448C8"/>
<rect x="15.6145" y="58.989" width="30.0399" height="2.84607" fill="black"/>
<rect x="23.0907" y="10.3997" width="13.1532" height="2.76453" fill="black"/>
<rect x="23.0906" y="56.134" width="13.1532" height="2.85522" fill="#9D9AFF"/>
<rect x="2.76453" y="26.7678" width="18.8505" height="2.76453" transform="rotate(90 2.76453 26.7678)" fill="black"/>
<rect x="61.2504" y="27.6211" width="16.9084" height="2.75775" transform="rotate(90 61.2504 27.6211)" fill="black"/>
<path d="M47.8761 37.7392L47.8761 33.5349L14.2425 33.535L14.2425 37.7392L47.8761 37.7392ZM22.6509 33.535L22.6509 29.3307L18.4467 29.3307L18.4467 33.535L22.6509 33.535ZM26.8551 29.3307L26.8551 25.1265L22.6509 25.1265L22.6509 29.3307L26.8551 29.3307ZM31.0593 25.1265L31.0593 20.9223L26.8551 20.9223L26.8551 25.1265L31.0593 25.1265ZM22.6509 37.7392L22.6509 41.9434L18.4467 41.9434L18.4467 37.7392L22.6509 37.7392Z" fill="#E1DFDF"/>
<path d="M26.8551 29.3308L26.8551 46.1476L22.6509 46.1476L22.6509 29.3308L26.8551 29.3308ZM31.0593 25.1266L31.0593 50.3518L26.8551 50.3518L26.8551 25.1266L31.0593 25.1266Z" fill="#E1DFDF"/>
<rect x="31.0593" y="21.28" width="28.5051" height="4.20422" transform="rotate(90 31.0593 21.28)" fill="#E1DFDF"/>
<rect x="26.8551" y="26.6445" width="17.7761" height="4.20422" transform="rotate(90 26.8551 26.6445)" fill="#E1DFDF"/>
<rect x="29.5932" y="29.2849" width="12.6586" height="11.1465" transform="rotate(90 29.5932 29.2849)" fill="#E1DFDF"/>
</g>
<defs>
<clipPath id="clip0_1971_91233">
<rect width="61.2613" height="63.964" fill="white"/>
</clipPath>
</defs>
</svg>
